<?xml version="1.0" encoding="utf-8"?>
<!-- Generator: Adobe Illustrator 23.0.1, SVG Export Plug-In . SVG Version: 6.00 Build 0)  -->
<svg version="1.1" id="Capa_1" xmlns="http://www.w3.org/2000/svg" xmlns:xlink="http://www.w3.org/1999/xlink" x="0px" y="0px"
	 viewBox="0 0 121.5 127" style="enable-background:new 0 0 121.5 127;" xml:space="preserve">
<style type="text/css">
	.st0{fill-rule:evenodd;clip-rule:evenodd;}
</style>
<g id="Close">
	<path class="st0" d="M75.2,66.2l43.3-43.3c4-4,4-10.5,0-14.4c-4-4-10.5-4-14.4,0L60.7,51.8L17.4,8.5c-4-4-10.5-4-14.4,0
		c-4,4-4,10.5,0,14.4l43.3,43.3L3,109.6c-4,4-4,10.5,0,14.4c4,4,10.5,4,14.4,0l43.3-43.3l43.3,43.3c4,4,10.5,4,14.4,0
		c4-4,4-10.5,0-14.4L75.2,66.2z"/>
</g>
</svg>
