<?xml version="1.0" encoding="utf-8"?>
<!-- Generator: Adobe Illustrator 23.0.1, SVG Export Plug-In . SVG Version: 6.00 Build 0)  -->
<svg version="1.1" id="Capa_1" xmlns="http://www.w3.org/2000/svg" xmlns:xlink="http://www.w3.org/1999/xlink" x="0px" y="0px"
	 viewBox="0 0 121.5 127" style="enable-background:new 0 0 121.5 127;" xml:space="preserve">
<style type="text/css">
	.st0{fill:#5D5D5D;}
	.st1{fill:#FFFFFF;}
</style>
<path class="st0" d="M0.2,17.8c0-1.2,0-2.4,0-3.6c0.1-0.2,0.2-0.4,0.2-0.5c1-3.9,3.4-6.5,7.3-7.6c3.9-1,7.3,0,10.2,2.9
	c4.4,4.4,8.8,8.8,13.2,13.2c9.6,9.6,19.2,19.2,28.7,28.8c0.3,0.3,0.5,0.8,0.7,1.2c0.2-0.1,0.4-0.1,0.5-0.2c0.2-0.3,0.4-0.7,0.7-1
	c13.9-13.9,27.8-27.8,41.8-41.7c0.4-0.4,0.8-0.8,1.2-1.2c4.2-3.6,10.4-3.2,14.2,0.9c3.6,3.9,3.5,10.1-0.3,14
	c-2.7,2.8-5.5,5.5-8.2,8.3C99.2,42.7,87.9,54.1,76.5,65.5c-0.3,0.3-0.7,0.5-1.1,0.8c0.4,0.5,0.7,0.8,1,1c11,11,21.9,22,32.9,33
	c3.2,3.2,6.3,6.3,9.5,9.5c3.8,3.9,4,9.7,0.5,13.8c-1.6,1.9-3.7,2.9-5.9,3.6c-1.2,0-2.4,0-3.6,0c-3.1-0.7-5.3-2.7-7.5-4.9
	C88.9,108.9,75.4,95.5,62,82.1c-0.3-0.3-0.5-0.8-0.8-1.2c-0.6,0.5-0.9,0.8-1.1,1.1C46.5,95.5,32.9,109,19.3,122.6
	c-2.1,2.1-4.2,3.9-7.1,4.6c-1.2,0-2.4,0-3.6,0c-1.6-0.8-3.4-1.5-4.9-2.6c-2-1.4-2.8-3.6-3.5-5.8c0-1.2,0-2.4,0-3.6
	c0.8-3.1,2.8-5.3,5-7.5c13.4-13.4,26.9-26.9,40.3-40.3c0.3-0.3,0.6-0.6,1-1.1c-0.4-0.3-0.7-0.5-1-0.7C32.1,52,18.6,38.5,5,24.9
	C2.9,22.9,1,20.8,0.2,17.8z"/>
<path class="st1" d="M0.2,118.8c0.7,2.3,1.5,4.5,3.5,5.8c1.5,1,3.3,1.7,4.9,2.6c-2.8,0-5.6,0-8.4,0C0.2,124.4,0.2,121.6,0.2,118.8z"
	/>
</svg>
